<?xml version="1.0" encoding="UTF-8"?>
<svg width="126px" height="48px" viewBox="0 0 126 48" version="1.1" xmlns="http://www.w3.org/2000/svg" xmlns:xlink="http://www.w3.org/1999/xlink">
    <title>randall-roofing-logo</title>
    <g id="Page-1" stroke="none" stroke-width="1" fill="none" fill-rule="evenodd">
        <path d="M12.1492496,23.0243902 C15.0854702,23.0243902 17.381164,23.6819441 19.0363308,24.9970517 C20.6914976,26.3121594 21.519081,28.1704637 21.519081,30.5719646 C21.519081,32.3101939 21.1704757,33.7510944 20.473265,34.8946663 C19.7971819,36.0035845 18.7506606,36.9081929 17.333701,37.6084915 L17.1997758,37.673546 L22.369338,47.7426963 L22.369338,48 L15.9754058,48 L11.6050852,39.1830608 L11.5454648,39.1523296 L11.5452288,34.3561579 L11.8902966,34.4030457 L12.2513115,34.4552106 L12.2513115,34.4552106 C13.3372277,34.4552106 14.1630495,34.1756247 14.7287768,33.6164531 L14.7844826,33.559604 C15.3511499,32.962533 15.6344835,32.1294767 15.6344835,31.0604352 C15.6344835,29.9913938 15.3483446,29.1526511 14.7760667,28.5442073 C14.2222495,27.9553907 13.4162194,27.6514853 12.3579765,27.6324913 L6.0132629,27.6315416 L6.0132629,32.7236562 L0,32.7236562 L0,23.0243902 L12.1492496,23.0243902 Z" id="Path" fill="#FFFFFF" fill-rule="nonzero"></path>
        <path d="M10.2256673,34.2645339 L10.2259831,38.6796032 C8.63712983,38.3466054 6.99493884,38.7242001 6.05317143,40.251927 L6.05317143,48 L0,48 L0,34.2392696 L6.08677192,34.2392696 L6.08677192,36.4299341 C6.71019465,35.3041139 7.68269298,34.4241751 8.69920968,34.2733022 C8.80493174,34.2576108 8.9241925,34.2463259 9.05699195,34.2394474 L9.25189333,34.2392696 L9.25204482,34.2326911 C9.52789254,34.227457 9.85243337,34.2380713 10.2256673,34.2645339 Z" id="Path" fill="#F0BD41" fill-rule="nonzero"></path>
        <g id="Group-2" transform="translate(29.393772, 26.118199)" fill="#FFFFFF" fill-rule="nonzero">
            <path d="M2.19074711,12.2757974 L2.19074711,2.36397749 L9.42021256,2.36397749 C9.46515096,2.36397749 9.51430234,2.36679174 9.56766669,2.37242026 C9.62103104,2.37804878 9.67158675,2.39634146 9.7193338,2.42729831 C9.76708085,2.45825516 9.80640195,2.50609756 9.8372971,2.57082552 C9.86819226,2.63555347 9.88363983,2.72983114 9.88363983,2.85365854 L9.88363983,2.85365854 L9.88363983,4.23827392 C9.88363983,4.52532833 9.83870143,4.78001876 9.74882463,5.00234522 C9.65894782,5.22467167 9.53115424,5.41463415 9.36544388,5.57223265 C9.19973352,5.72983114 9.00312801,5.85506567 8.77562735,5.94793621 C8.54812669,6.04080675 8.2967525,6.09849906 8.02150479,6.12101313 L8.02150479,6.12101313 L3.06704595,6.12101313 L3.06704595,8.31613508 L4.64269868,8.31613508 L9.2095638,12.2757974 L12.5967959,12.2757974 L8.02150479,8.31613508 C8.2911352,8.31613508 8.57902184,8.28517824 8.88516471,8.22326454 C9.19130757,8.16135084 9.49464179,8.06144465 9.79516735,7.92354597 C10.0956929,7.78564728 10.3835796,7.6097561 10.6588273,7.39587242 C10.934075,7.18198874 11.1770232,6.92448405 11.387672,6.62335835 C11.5983207,6.32223265 11.7654354,5.97467167 11.889016,5.58067542 C12.0125966,5.18667917 12.0743869,4.73921201 12.0743869,4.23827392 L12.0743869,4.23827392 L12.0743869,2.83677298 C12.0743869,2.56660413 12.0280442,2.27673546 11.9353588,1.96716698 C11.8426733,1.6575985 11.6910062,1.36913696 11.4803574,1.10178236 C11.2697087,0.834427767 10.9958653,0.612101313 10.6588273,0.434803002 C10.3217893,0.25750469 9.90891768,0.168855535 9.42021256,0.168855535 L9.42021256,0.168855535 L1.1037995,0.168855535 C0.946515096,0.168855535 0.800465289,0.196998124 0.665650082,0.253283302 C0.530834876,0.30956848 0.414275895,0.38836773 0.31597314,0.489681051 C0.217670386,0.590994371 0.140432507,0.709193246 0.0842595041,0.844277674 C0.0280865014,0.979362101 7.10542736e-15,1.12288931 7.10542736e-15,1.27485929 L7.10542736e-15,1.27485929 L7.10542736e-15,12.2757974 L2.19074711,12.2757974 Z" id="Path"></path>
            <path d="M25.0250727,0.168855535 L25.1739312,0.178236398 C25.2712977,0.190744215 25.3649194,0.21575985 25.4547962,0.253283302 C25.5896114,0.30956848 25.7075747,0.38836773 25.8086861,0.489681051 C25.9097975,0.590994371 25.9884397,0.709193246 26.0446127,0.844277674 C26.0820614,0.934333959 26.1070272,1.02814259 26.1195101,1.12570356 L26.1288722,1.27485929 L26.1288722,12.2757974 L23.9381251,12.2757974 L23.9381251,9.30393996 L16.2368064,9.30393996 L16.2368064,12.2757974 L14.0460593,12.2757974 L14.0460593,6.22232645 L14.0531687,5.89424543 C14.0863459,5.13641827 14.2356432,4.43245779 14.5010607,3.78236398 C14.8043949,3.03939962 15.2256924,2.40056285 15.7649532,1.86585366 C16.304214,1.33114447 16.9417776,0.914634146 17.677644,0.616322702 C18.321527,0.355300188 19.017019,0.208475023 19.7641199,0.175847209 L20.0874658,0.168855535 L25.0250727,0.168855535 Z M23.9381251,7.10881801 L23.9381251,2.36397749 L20.0380897,2.36515947 L19.8857485,2.37461538 C19.8230595,2.37934334 19.7484617,2.38564728 19.6619553,2.3935272 C19.4456892,2.41322702 19.1957194,2.46247655 18.9120457,2.5412758 C18.628372,2.62007505 18.3292508,2.74108818 18.014682,2.9043152 C17.7001132,3.06754221 17.4108222,3.29268293 17.1468091,3.57973734 C16.882796,3.86679174 16.6651256,4.22560976 16.4937979,4.65619137 C16.3469457,5.02526132 16.2630301,5.46152889 16.2420512,5.96499407 L16.2368064,6.22232645 L16.2368064,7.10881801 L23.9381251,7.10881801 Z" id="Shape"></path>
            <path d="M39.6440967,12.4446529 C39.7957638,12.4446529 39.9390049,12.4165103 40.0738202,12.3602251 C40.2086354,12.30394 40.3251943,12.2265478 40.4234971,12.1280488 C40.5217998,12.0295497 40.6004421,11.912758 40.6594237,11.7776735 C40.7184054,11.6425891 40.7478962,11.4962477 40.7478962,11.3386492 L40.7478962,11.3386492 L40.7478962,0.168855535 L38.5571491,0.168855535 L38.5571491,8.69606004 L30.5524962,0.329268293 C30.3952118,0.166041276 30.2070322,0.0633208255 29.9879575,0.0211069418 C29.7688828,-0.0211069418 29.5554254,3.46389584e-14 29.3475853,0.0844277674 C29.1509798,0.174484053 28.9894824,0.31097561 28.8630931,0.493902439 C28.7367039,0.676829268 28.6735092,0.880863039 28.6735092,1.10600375 L28.6735092,1.10600375 L28.6735092,12.2757974 L30.8642564,12.2757974 L30.8642564,3.74859287 L38.8689092,12.1238274 C38.9756379,12.2363977 39.0978142,12.3180113 39.2354381,12.3686679 C39.3730619,12.4193246 39.5092815,12.4446529 39.6440967,12.4446529 Z" id="Path"></path>
            <path d="M50.294498,0.168855535 L50.6017873,0.176609105 C51.2098313,0.207623387 51.778669,0.331680515 52.3083001,0.548780488 C52.9262032,0.80206379 53.4598467,1.15243902 53.9092307,1.59990619 C54.3586147,2.04737336 54.7111003,2.58208255 54.9666875,3.20403377 C55.1857622,3.73713482 55.3109478,4.31055443 55.3422442,4.92429261 L55.3500682,5.23452158 L55.3500682,7.21013133 L55.3422442,7.52251407 C55.3109478,8.14004288 55.1857622,8.7141517 54.9666875,9.24484053 C54.7111003,9.86397749 54.3586147,10.3972795 53.9092307,10.8447467 C53.4598467,11.2922139 52.9262032,11.6425891 52.3083001,11.8958724 C51.778669,12.1129724 51.2098313,12.2370295 50.6017873,12.2680438 L50.294498,12.2757974 L44.3794808,12.2757974 L44.2259413,12.2664165 C44.1260782,12.2539087 44.0312082,12.2288931 43.9413314,12.1913696 C43.8065162,12.1350844 43.6899572,12.0576923 43.5916544,11.9591932 C43.4933517,11.8606942 43.4161138,11.7439024 43.3599408,11.608818 C43.3224921,11.5187617 43.2975264,11.4237023 43.2850435,11.3236398 L43.2756813,11.1697936 L43.2756813,1.27485929 L43.2850435,1.12570356 C43.2975264,1.02814259 43.3224921,0.934333959 43.3599408,0.844277674 C43.4161138,0.709193246 43.4933517,0.590994371 43.5916544,0.489681051 C43.6899572,0.38836773 43.8065162,0.30956848 43.9413314,0.253283302 C44.0312082,0.21575985 44.1260782,0.190744215 44.2259413,0.178236398 L44.3794808,0.168855535 L50.294498,0.168855535 Z M50.294498,2.36397749 L45.4664284,2.36397749 L45.4664284,10.0806754 L50.294498,10.0806754 C50.7214128,10.0806754 51.1104109,10.0117261 51.4614921,9.87382739 C51.8125734,9.73592871 52.1145033,9.54174484 52.3672818,9.2912758 C52.6200603,9.04080675 52.8152615,8.73968105 52.9528854,8.38789869 C53.0629844,8.1064728 53.1290439,7.79893058 53.1510637,7.46527205 L53.1593211,7.21013133 L53.1593211,5.23452158 L53.1510637,4.98225141 C53.1290439,4.65174484 53.0629844,4.34465291 52.9528854,4.06097561 C52.8152615,3.70637899 52.6200603,3.40384615 52.3672818,3.15337711 C52.1145033,2.90290807 51.8125734,2.7087242 51.4614921,2.57082552 C51.1806271,2.46050657 50.8754954,2.3943152 50.5460969,2.37225141 L50.294498,2.36397749 Z" id="Shape"></path>
            <path d="M68.2501983,0.168855535 L68.3990568,0.178236398 C68.4964233,0.190744215 68.590045,0.21575985 68.6799218,0.253283302 C68.814737,0.30956848 68.9327003,0.38836773 69.0338117,0.489681051 C69.1349231,0.590994371 69.2135653,0.709193246 69.2697383,0.844277674 C69.307187,0.934333959 69.3321528,1.02814259 69.3446357,1.12570356 L69.3539978,1.27485929 L69.3539978,12.2757974 L67.1632507,12.2757974 L67.1632507,9.30393996 L59.461932,9.30393996 L59.461932,12.2757974 L57.2711849,12.2757974 L57.2711849,6.22232645 L57.2782943,5.89424543 C57.3114715,5.13641827 57.4607688,4.43245779 57.7261863,3.78236398 C58.0295205,3.03939962 58.450818,2.40056285 58.9900788,1.86585366 C59.5293397,1.33114447 60.1669032,0.914634146 60.9027696,0.616322702 C61.5466526,0.355300188 62.2421446,0.208475023 62.9892455,0.175847209 L63.3125914,0.168855535 L68.2501983,0.168855535 Z M67.1632507,7.10881801 L67.1632507,2.36397749 L63.2632153,2.36515947 L63.1108741,2.37461538 C63.0481851,2.37934334 62.9735873,2.38564728 62.8870809,2.3935272 C62.6708148,2.41322702 62.420845,2.46247655 62.1371713,2.5412758 C61.8534976,2.62007505 61.5543764,2.74108818 61.2398076,2.9043152 C60.9252388,3.06754221 60.6359478,3.29268293 60.3719347,3.57973734 C60.1079216,3.86679174 59.8902512,4.22560976 59.7189235,4.65619137 C59.5720713,5.02526132 59.4881557,5.46152889 59.4671768,5.96499407 L59.461932,6.22232645 L59.461932,7.10881801 L67.1632507,7.10881801 Z" id="Shape"></path>
            <path d="M82.9956115,12.2757974 L82.9956115,10.0806754 L74.089382,10.0806754 L74.089382,0.168855535 L71.8986349,0.168855535 L71.8986349,11.1697936 C71.8986349,11.3273921 71.9267214,11.4737336 71.9828944,11.608818 C72.0390674,11.7439024 72.1163052,11.8606942 72.214608,11.9591932 C72.3129107,12.0576923 72.4294697,12.1350844 72.5642849,12.1913696 C72.6991001,12.2476548 72.84515,12.2757974 73.0024344,12.2757974 L73.0024344,12.2757974 L82.9956115,12.2757974 Z" id="Path"></path>
            <path d="M95.7019448,12.2757974 L95.7019448,10.0806754 L86.7957152,10.0806754 L86.7957152,0.168855535 L84.6049681,0.168855535 L84.6049681,11.1697936 C84.6049681,11.3273921 84.6330546,11.4737336 84.6892276,11.608818 C84.7454006,11.7439024 84.8226385,11.8606942 84.9209412,11.9591932 C85.019244,12.0576923 85.1358029,12.1350844 85.2706182,12.1913696 C85.4054334,12.2476548 85.5514832,12.2757974 85.7087676,12.2757974 L85.7087676,12.2757974 L95.7019448,12.2757974 Z" id="Path"></path>
        </g>
        <g id="Group" transform="translate(28.616244, 42.905879)" fill="#F0BD41" fill-rule="nonzero">
            <path d="M0.851957208,4.7739212 L0.851957208,0.919324578 L3.663416,0.919324578 C3.68089204,0.919324578 3.70000647,0.920419012 3.72075927,0.92260788 C3.74151207,0.924796748 3.76117262,0.931910569 3.77974092,0.943949343 C3.79830922,0.955988118 3.81360076,0.974593496 3.82561554,0.999765478 C3.83763032,1.02493746 3.84363771,1.061601 3.84363771,1.1097561 L3.84363771,1.1097561 L3.84363771,1.64821764 C3.84363771,1.75984991 3.82616167,1.85889619 3.79120958,1.94535647 C3.75625749,2.03181676 3.70655998,2.10569106 3.64211707,2.16697936 C3.57767415,2.22826767 3.50121645,2.27696998 3.41274397,2.3130863 C3.32427149,2.34920263 3.22651486,2.37163852 3.11947409,2.380394 L3.11947409,2.380394 L1.19274009,2.380394 L1.19274009,3.23405253 L1.80549393,3.23405253 L3.58149703,4.7739212 L4.89875395,4.7739212 L3.11947409,3.23405253 C3.22433036,3.23405253 3.33628627,3.22201376 3.45534183,3.19793621 C3.57439739,3.17385866 3.6923607,3.13500625 3.80923175,3.08137899 C3.9261028,3.02775172 4.03805872,2.95934959 4.14509949,2.87617261 C4.25214027,2.79299562 4.34662014,2.69285491 4.4285391,2.57575047 C4.51045807,2.45864603 4.57544711,2.32348343 4.62350623,2.17026266 C4.67156536,2.0170419 4.69559492,1.84302689 4.69559492,1.64821764 L4.69559492,1.64821764 L4.69559492,1.10318949 C4.69559492,0.998123827 4.67757275,0.885397123 4.64152841,0.765009381 C4.60548406,0.644621639 4.54650241,0.532442151 4.46458345,0.428470919 C4.38266448,0.324499687 4.27616983,0.2380394 4.14509949,0.169090056 C4.01402915,0.100140713 3.85346799,0.0656660413 3.663416,0.0656660413 L3.663416,0.0656660413 L0.429255363,0.0656660413 C0.368089204,0.0656660413 0.311292057,0.0766103815 0.258863921,0.0984990619 C0.206435785,0.120387742 0.161107293,0.151031895 0.122878443,0.19043152 C0.0846495944,0.229831144 0.0546126416,0.275797373 0.0327675849,0.328330206 C0.0109225283,0.380863039 -4.79616347e-14,0.436679174 -4.79616347e-14,0.495778612 L-4.79616347e-14,0.495778612 L-4.79616347e-14,4.7739212 L0.851957208,4.7739212 Z" id="Path"></path>
            <path d="M18.7488319,0 L18.9153568,0.00590994371 C19.1339821,0.0216697936 19.3389761,0.0689493433 19.5303388,0.147748593 C19.7695422,0.246247655 19.9765241,0.38250469 20.1512846,0.5565197 C20.326045,0.730534709 20.4625766,0.938477173 20.5608794,1.18034709 C20.6395216,1.37384303 20.6867069,1.5809975 20.7024353,1.80181051 L20.7083335,1.96998124 L20.7083335,2.869606 L20.7024353,3.03889306 C20.6867069,3.26093183 20.6395216,3.46826141 20.5608794,3.6608818 C20.4625766,3.90165729 20.326045,4.10959975 20.1512846,4.28470919 C19.9765241,4.45981864 19.7695422,4.59607567 19.5303388,4.6934803 C19.3509363,4.76653377 19.1595531,4.81219219 18.9561893,4.83045556 L18.7488319,4.83958724 L17.5954129,4.83958724 L17.3879532,4.83045556 C17.1843845,4.81219219 16.9924894,4.76653377 16.8122676,4.6934803 C16.571972,4.59607567 16.364444,4.45981864 16.1896835,4.28470919 C16.0149231,4.10959975 15.8778454,3.90165729 15.7784503,3.6608818 C15.6989343,3.46826141 15.6512247,3.26093183 15.6353215,3.03889306 L15.6293578,2.869606 L15.6293578,1.96998124 L15.6353215,1.80181051 C15.6512247,1.5809975 15.6989343,1.37384303 15.7784503,1.18034709 C15.8778454,0.938477173 16.0149231,0.730534709 16.1896835,0.5565197 C16.364444,0.38250469 16.571972,0.246247655 16.8122676,0.147748593 C17.0045041,0.0689493433 17.2100224,0.0216697936 17.4288225,0.00590994371 L17.5954129,0 L18.7488319,0 Z M18.7488319,0.853658537 L17.5954129,0.853658537 L17.4343056,0.862596414 C17.3301775,0.874513585 17.2326029,0.898347926 17.1415819,0.934099437 C17.0050503,0.987726704 16.8876331,1.06324265 16.7893303,1.16064728 C16.6910276,1.25805191 16.615116,1.37515635 16.5615956,1.5119606 C16.5259154,1.60316344 16.5021285,1.70141929 16.4902351,1.80672816 L16.481315,1.96998124 L16.481315,2.869606 L16.4902351,3.03285908 C16.5021285,3.13816795 16.5259154,3.23642381 16.5615956,3.32762664 C16.615116,3.46443089 16.6910276,3.58153533 16.7893303,3.67893996 C16.8876331,3.77634459 17.0050503,3.85186054 17.1415819,3.9054878 C17.2326029,3.94123932 17.3301775,3.96507366 17.4343056,3.97699083 L17.5954129,3.98592871 L18.7422784,3.98592871 C18.9083008,3.98592871 19.0595778,3.95911507 19.1961095,3.9054878 C19.3326411,3.85186054 19.4500582,3.77634459 19.548361,3.67893996 C19.6466637,3.58153533 19.7225753,3.46443089 19.7760957,3.32762664 C19.811776,3.23642381 19.8355628,3.13816795 19.8474562,3.03285908 L19.8563763,2.869606 L19.8563763,1.96998124 L19.8474562,1.80672816 C19.8355628,1.70141929 19.811776,1.60316344 19.7760957,1.5119606 C19.7225753,1.37515635 19.6472099,1.25805191 19.5499994,1.16064728 C19.4527889,1.06324265 19.3359178,0.987726704 19.1993862,0.934099437 C19.1083651,0.898347926 19.011276,0.874513585 18.9081188,0.862596414 L18.7488319,0.853658537 Z" id="Shape"></path>
            <path d="M34.7484635,0 L34.9149883,0.00590994371 C35.1336137,0.0216697936 35.3386077,0.0689493433 35.5299704,0.147748593 C35.7691737,0.246247655 35.9761556,0.38250469 36.1509161,0.5565197 C36.3256765,0.730534709 36.4622081,0.938477173 36.5605109,1.18034709 C36.6391531,1.37384303 36.6863384,1.5809975 36.7020669,1.80181051 L36.707965,1.96998124 L36.707965,2.869606 L36.7020669,3.03889306 C36.6863384,3.26093183 36.6391531,3.46826141 36.5605109,3.6608818 C36.4622081,3.90165729 36.3256765,4.10959975 36.1509161,4.28470919 C35.9761556,4.45981864 35.7691737,4.59607567 35.5299704,4.6934803 C35.3505678,4.76653377 35.1591847,4.81219219 34.9558208,4.83045556 L34.7484635,4.83958724 L33.5950445,4.83958724 L33.3875847,4.83045556 C33.1840161,4.81219219 32.9921209,4.76653377 32.8118992,4.6934803 C32.5716036,4.59607567 32.3640755,4.45981864 32.1893151,4.28470919 C32.0145546,4.10959975 31.8774769,3.90165729 31.7780819,3.6608818 C31.6985659,3.46826141 31.6508563,3.26093183 31.6349531,3.03889306 L31.6289894,2.869606 L31.6289894,1.96998124 L31.6349531,1.80181051 C31.6508563,1.5809975 31.6985659,1.37384303 31.7780819,1.18034709 C31.8774769,0.938477173 32.0145546,0.730534709 32.1893151,0.5565197 C32.3640755,0.38250469 32.5716036,0.246247655 32.8118992,0.147748593 C33.0041357,0.0689493433 33.209654,0.0216697936 33.4284541,0.00590994371 L33.5950445,0 L34.7484635,0 Z M34.7484635,0.853658537 L33.5950445,0.853658537 L33.4339372,0.862596414 C33.3298091,0.874513585 33.2322345,0.898347926 33.1412134,0.934099437 C33.0046818,0.987726704 32.8872646,1.06324265 32.7889619,1.16064728 C32.6906591,1.25805191 32.6147476,1.37515635 32.5612272,1.5119606 C32.5255469,1.60316344 32.5017601,1.70141929 32.4898666,1.80672816 L32.4809466,1.96998124 L32.4809466,2.869606 L32.4898666,3.03285908 C32.5017601,3.13816795 32.5255469,3.23642381 32.5612272,3.32762664 C32.6147476,3.46443089 32.6906591,3.58153533 32.7889619,3.67893996 C32.8872646,3.77634459 33.0046818,3.85186054 33.1412134,3.9054878 C33.2322345,3.94123932 33.3298091,3.96507366 33.4339372,3.97699083 L33.5950445,3.98592871 L34.7419099,3.98592871 C34.9079324,3.98592871 35.0592094,3.95911507 35.195741,3.9054878 C35.3322726,3.85186054 35.4496898,3.77634459 35.5479925,3.67893996 C35.6462953,3.58153533 35.7222069,3.46443089 35.7757272,3.32762664 C35.8114075,3.23642381 35.8351943,3.13816795 35.8470878,3.03285908 L35.8560078,2.869606 L35.8560078,1.96998124 L35.8470878,1.80672816 C35.8351943,1.70141929 35.8114075,1.60316344 35.7757272,1.5119606 C35.7222069,1.37515635 35.6468414,1.25805191 35.5496309,1.16064728 C35.4524204,1.06324265 35.3355494,0.987726704 35.1990178,0.934099437 C35.1079967,0.898347926 35.0109075,0.874513585 34.9077503,0.862596414 L34.7484635,0.853658537 Z" id="Shape"></path>
            <path d="M48.6280323,4.7739212 L48.6280323,0.919324578 L52.0424146,0.919324578 L52.0424146,0.0656660413 L48.2053304,0.0656660413 C48.1441642,0.0656660413 48.0873671,0.0766103815 48.034939,0.0984990619 C47.9825108,0.120387742 47.9371823,0.151031895 47.8989535,0.19043152 C47.8607246,0.229831144 47.8306877,0.275797373 47.8088426,0.328330206 C47.7869976,0.380863039 47.776075,0.436679174 47.776075,0.495778612 L47.776075,0.495778612 L47.776075,4.7739212 L48.6280323,4.7739212 Z" id="Path"></path>
            <polygon id="Path" points="51.6623106 2.84990619 51.6623106 1.98968105 48.9688151 1.98968105 48.9688151 2.84990619"></polygon>
            <polygon id="Path" points="63.8150277 4.7739212 63.8150277 0.0656660413 62.9630705 0.0656660413 62.9630705 4.7739212"></polygon>
            <path d="M79.3034849,4.83958724 C79.3624666,4.83958724 79.4181715,4.8286429 79.4705996,4.80675422 C79.5230277,4.78486554 79.5683562,4.75476861 79.6065851,4.71646341 C79.6448139,4.67815822 79.675397,4.63273921 79.6983343,4.58020638 C79.7212716,4.52767355 79.7327403,4.47076298 79.7327403,4.40947467 L79.7327403,4.40947467 L79.7327403,0.0656660413 L78.8807831,0.0656660413 L78.8807831,3.38180113 L75.7678625,0.12804878 C75.7066963,0.0645716073 75.6335154,0.0246247655 75.5483197,0.00820825516 C75.463124,-0.00820825516 75.3801127,-3.55271368e-15 75.299286,0.0328330206 C75.2228283,0.0678549093 75.1600238,0.120934959 75.1108724,0.192073171 C75.061721,0.263211382 75.0371453,0.342557849 75.0371453,0.43011257 L75.0371453,0.43011257 L75.0371453,4.7739212 L75.8891026,4.7739212 L75.8891026,1.45778612 L79.0020231,4.71482176 C79.0435287,4.75859912 79.0910417,4.79033771 79.1445621,4.81003752 C79.1980825,4.82973734 79.2510568,4.83958724 79.3034849,4.83958724 Z" id="Path"></path>
            <path d="M95.1556623,4.7739212 C95.2168285,4.7739212 95.2736256,4.76297686 95.3260538,4.74108818 C95.3784819,4.7191995 95.4238104,4.68910256 95.4620392,4.65079737 C95.5002681,4.61249218 95.530305,4.56707317 95.5521501,4.51454034 C95.5739951,4.4620075 95.5849177,4.40509694 95.5849177,4.34380863 L95.5849177,4.34380863 L95.5849177,2.41979362 C95.5849177,2.36069418 95.5739951,2.30542527 95.5521501,2.25398687 C95.530305,2.20254847 95.5002681,2.15712946 95.4620392,2.11772983 C95.4238104,2.07833021 95.3784819,2.04713884 95.3260538,2.02415572 C95.2736256,2.00117261 95.2168285,1.98968105 95.1556623,1.98968105 L95.1556623,1.98968105 L92.4654436,1.98968105 L92.4654436,2.84990619 L94.7329605,2.84990619 L94.7329605,3.92026266 L92.0820628,3.92026266 C91.9728376,3.92026266 91.888188,3.89016573 91.8281141,3.82997186 C91.7680402,3.76977799 91.7380032,3.68495935 91.7380032,3.57551595 L91.7380032,3.57551595 L91.7380032,1.2706379 C91.7380032,1.15462789 91.767494,1.06707317 91.8264757,1.00797373 C91.8854573,0.948874296 91.9706531,0.919324578 92.0820628,0.919324578 L92.0820628,0.919324578 L95.5455966,0.919324578 L95.5455966,0.0656660413 L92.0820628,0.0656660413 C91.935701,0.0656660413 91.8046306,0.0842714196 91.6888518,0.121482176 C91.573073,0.158692933 91.4709474,0.208489681 91.3824749,0.27087242 C91.2940024,0.333255159 91.2180909,0.404940588 91.1547402,0.485928705 C91.0913895,0.566916823 91.0400536,0.65173546 91.0007325,0.740384615 C90.9614114,0.829033771 90.9324667,0.918777361 90.9138984,1.00961538 C90.8953301,1.10045341 90.886046,1.18527205 90.886046,1.26407129 L90.886046,1.26407129 L90.886046,3.57551595 C90.886046,3.72217011 90.9046143,3.85404941 90.9417509,3.97115385 C90.9788875,4.08825829 91.028585,4.19113508 91.0908434,4.27978424 C91.1531018,4.3684334 91.2246444,4.44394934 91.3054711,4.50633208 C91.3862978,4.56871482 91.4709474,4.619606 91.5594199,4.65900563 C91.6478923,4.69840525 91.7374571,4.72740775 91.8281141,4.74601313 C91.918771,4.76461851 92.0034206,4.7739212 92.0820628,4.7739212 L92.0820628,4.7739212 L95.1556623,4.7739212 Z" id="Path"></path>
        </g>
        <polygon id="Path" fill="#F0BD41" points="83.1939249 2.73170732 123.707317 19.5121951 115.916255 19.5121951 83.1939249 5.9587242 72.1896549 10.5165629 68.2926829 8.90369981"></polygon>
        <polygon id="Path" fill="#FFFFFF" points="47.0243902 0 94.0487805 19.5121951 86.2616054 19.5120321 47.0243902 3.23127135 7.78717505 19.5120321 0 19.5121951"></polygon>
    </g>
</svg>